<svg xmlns="http://www.w3.org/2000/svg" width="1400" height="850" viewBox="0 0 1400 850">
<defs><marker id="arrow" markerWidth="10" markerHeight="10" refX="8" refY="3" orient="auto"><path d="M0,0 L0,6 L9,3 z" fill="#111"/></marker></defs>
<rect width="100%" height="100%" fill="white"/>
<text x="700.0" y="35" font-family="Arial" font-size="30" font-weight="bold" text-anchor="middle" fill="#111">Ride-sharing Microservices Architecture</text>
<text x="700.0" y="78" font-family="Arial" font-size="18" font-weight="normal" text-anchor="middle" fill="#111">Seven independently runnable services with centralized configuration</text>
<line x1="700" y1="130" x2="330" y2="220" stroke="#111" stroke-width="3" marker-end="url(#arrow)"/>
<line x1="700" y1="130" x2="640" y2="220" stroke="#111" stroke-width="3" marker-end="url(#arrow)"/>
<line x1="700" y1="130" x2="950" y2="220" stroke="#111" stroke-width="3" marker-end="url(#arrow)"/>
<line x1="700" y1="130" x2="1260" y2="220" stroke="#111" stroke-width="3" marker-end="url(#arrow)"/>
<line x1="330" y1="330" x2="485" y2="430" stroke="#111" stroke-width="3" marker-end="url(#arrow)"/>
<line x1="640" y1="330" x2="795" y2="430" stroke="#111" stroke-width="3" marker-end="url(#arrow)"/>
<line x1="950" y1="330" x2="1105" y2="430" stroke="#111" stroke-width="3" marker-end="url(#arrow)"/>
<line x1="485" y1="540" x2="700" y2="650" stroke="#111" stroke-width="3" marker-end="url(#arrow)"/>
<line x1="795" y1="540" x2="700" y2="650" stroke="#111" stroke-width="3" marker-end="url(#arrow)"/>
<line x1="1105" y1="540" x2="700" y2="650" stroke="#111" stroke-width="3" marker-end="url(#arrow)"/>
<rect x="520" y="50" width="360" height="80" rx="14" fill="#e8e8e8" stroke="#111" stroke-width="3"/>
<text x="700.0" y="92" font-family="Arial" font-size="22" font-weight="bold" text-anchor="middle" fill="#111">Client / Browser</text>
<text x="700.0" y="125" font-family="Arial" font-size="16" font-weight="normal" text-anchor="middle" fill="#111">Sends HTTP requests</text>
<rect x="70" y="220" width="260" height="110" rx="14" fill="#f5f5f5" stroke="#111" stroke-width="3"/>
<text x="200.0" y="262" font-family="Arial" font-size="22" font-weight="bold" text-anchor="middle" fill="#111">Rider</text>
<text x="200.0" y="295" font-family="Arial" font-size="16" font-weight="normal" text-anchor="middle" fill="#111">rider service</text>
<rect x="380" y="220" width="260" height="110" rx="14" fill="#f5f5f5" stroke="#111" stroke-width="3"/>
<text x="510.0" y="262" font-family="Arial" font-size="22" font-weight="bold" text-anchor="middle" fill="#111">Driver</text>
<text x="510.0" y="295" font-family="Arial" font-size="16" font-weight="normal" text-anchor="middle" fill="#111">driver service</text>
<rect x="690" y="220" width="260" height="110" rx="14" fill="#f5f5f5" stroke="#111" stroke-width="3"/>
<text x="820.0" y="262" font-family="Arial" font-size="22" font-weight="bold" text-anchor="middle" fill="#111">Trip</text>
<text x="820.0" y="295" font-family="Arial" font-size="16" font-weight="normal" text-anchor="middle" fill="#111">trip service</text>
<rect x="1000" y="220" width="260" height="110" rx="14" fill="#f5f5f5" stroke="#111" stroke-width="3"/>
<text x="1130.0" y="262" font-family="Arial" font-size="22" font-weight="bold" text-anchor="middle" fill="#111">Matching</text>
<text x="1130.0" y="295" font-family="Arial" font-size="16" font-weight="normal" text-anchor="middle" fill="#111">matching service</text>
<rect x="225" y="430" width="260" height="110" rx="14" fill="#f5f5f5" stroke="#111" stroke-width="3"/>
<text x="355.0" y="472" font-family="Arial" font-size="22" font-weight="bold" text-anchor="middle" fill="#111">Payment</text>
<text x="355.0" y="505" font-family="Arial" font-size="16" font-weight="normal" text-anchor="middle" fill="#111">payment service</text>
<rect x="535" y="430" width="260" height="110" rx="14" fill="#f5f5f5" stroke="#111" stroke-width="3"/>
<text x="665.0" y="472" font-family="Arial" font-size="22" font-weight="bold" text-anchor="middle" fill="#111">Rating</text>
<text x="665.0" y="505" font-family="Arial" font-size="16" font-weight="normal" text-anchor="middle" fill="#111">rating service</text>
<rect x="845" y="430" width="260" height="110" rx="14" fill="#f5f5f5" stroke="#111" stroke-width="3"/>
<text x="975.0" y="472" font-family="Arial" font-size="22" font-weight="bold" text-anchor="middle" fill="#111">Notification</text>
<text x="975.0" y="505" font-family="Arial" font-size="16" font-weight="normal" text-anchor="middle" fill="#111">notification service</text>
<rect x="520" y="650" width="360" height="90" rx="14" fill="#f5f5f5" stroke="#111" stroke-width="3"/>
<text x="700.0" y="692" font-family="Arial" font-size="22" font-weight="bold" text-anchor="middle" fill="#111">In-memory service state</text>
<text x="700.0" y="725" font-family="Arial" font-size="16" font-weight="normal" text-anchor="middle" fill="#111">Replace with a database in production</text>
</svg>